<?xml version="1.0" standalone="no"?>
<!DOCTYPE svg PUBLIC "-//W3C//DTD SVG 20010904//EN"
 "http://www.w3.org/TR/2001/REC-SVG-20010904/DTD/svg10.dtd">
<svg version="1.0" xmlns="http://www.w3.org/2000/svg"
 width="506.000000pt" height="506.000000pt" viewBox="0 0 506.000000 506.000000"
 preserveAspectRatio="xMidYMid meet">
<metadata>
Created by potrace 1.14, written by Peter Selinger 2001-2017
</metadata>
<g transform="translate(0.000000,506.000000) scale(0.100000,-0.100000)"
fill="#000000" stroke="none">
<path d="M2154 4876 c-104 -88 -311 -296 -404 -406 -30 -36 -57 -67 -60 -70
-4 -4 -49 -60 -118 -150 -2 -3 -353 -5 -780 -5 l-777 0 -3 -102 c-2 -79 0
-103 10 -104 7 0 325 -1 705 -1 381 0 691 -3 689 -7 -2 -3 -29 -48 -60 -99
-129 -213 -228 -424 -299 -632 -37 -107 -81 -267 -91 -330 -3 -19 -10 -58 -15
-87 -6 -29 -13 -81 -16 -115 -4 -35 -8 -69 -10 -75 -3 -10 -104 -13 -460 -13
l-455 0 0 -105 0 -105 455 0 455 0 0 -42 c1 -99 13 -221 30 -308 6 -30 13 -67
15 -83 27 -151 116 -400 209 -586 57 -113 166 -296 213 -358 14 -18 24 -33 22
-34 -2 0 -318 -1 -702 -1 l-697 -1 0 -103 0 -104 781 0 781 0 36 -43 c44 -51
317 -325 387 -388 41 -36 142 -120 257 -214 14 -12 22 -8 64 28 360 312 759
856 949 1297 21 47 40 88 44 92 5 5 819 193 931 214 14 3 84 18 156 35 73 16
140 32 150 34 11 2 91 20 179 40 88 20 171 38 185 41 14 3 51 11 83 19 32 8
61 15 64 15 9 0 -3 191 -13 199 -5 5 -76 -7 -159 -25 -82 -19 -159 -36 -170
-38 -11 -2 -103 -23 -205 -46 -102 -23 -194 -43 -205 -46 -20 -4 -851 -189
-892 -199 l-21 -5 19 63 c20 66 64 257 73 319 3 21 9 62 12 90 4 29 8 60 10
68 1 8 3 27 3 43 l1 27 775 0 775 0 0 105 0 105 -770 0 c-423 0 -770 3 -771 8
0 4 -2 45 -4 92 -6 116 -23 247 -46 354 -10 49 -18 91 -16 92 2 2 19 -1 38 -6
32 -9 449 -105 494 -114 22 -4 304 -69 400 -91 226 -53 636 -145 648 -145 9 0
17 14 21 38 9 55 7 160 -3 166 -4 3 -78 21 -162 40 -85 19 -264 60 -399 91
-135 31 -254 58 -265 61 -11 2 -29 6 -40 8 -26 6 -351 81 -480 111 -55 13
-147 33 -205 46 -58 12 -109 26 -113 30 -5 4 -26 50 -47 103 -120 297 -334
639 -555 886 -62 69 -178 192 -200 213 -11 10 -51 49 -90 85 -84 81 -231 212
-237 212 -2 0 -49 -38 -104 -84z m208 -408 c106 -106 224 -234 294 -323 21
-27 41 -52 44 -55 42 -40 290 -436 290 -463 0 -3 -35 12 -77 33 -75 37 -274
133 -508 245 -60 29 -199 96 -309 149 -109 53 -203 96 -207 96 -16 0 -9 18 18
52 15 18 30 35 33 38 3 3 18 21 34 40 41 51 270 290 278 290 3 0 53 -46 110
-102z m-387 -588 c105 -51 235 -114 290 -140 107 -50 225 -107 594 -286 128
-63 237 -114 241 -114 11 0 26 -42 55 -150 39 -151 65 -322 69 -459 l1 -46
-1004 -3 -1003 -2 6 50 c47 387 205 789 459 1170 57 85 65 92 86 80 9 -4 102
-49 206 -100z m1241 -1437 c-3 -16 -8 -53 -11 -83 -12 -111 -57 -299 -108
-450 l-52 -155 -649 -326 -649 -326 -37 46 c-77 97 -188 270 -254 394 -75 140
-170 389 -192 507 -3 14 -9 44 -14 67 -6 23 -12 63 -15 90 -3 26 -8 55 -10 63
-2 8 -7 57 -10 108 l-7 92 1006 0 1006 0 -4 -27z m-330 -1018 c-11 -29 -149
-251 -213 -343 -65 -93 -202 -270 -253 -327 -15 -16 -58 -62 -95 -102 l-68
-72 -46 40 c-100 89 -321 312 -316 318 9 9 978 499 989 500 4 1 6 -6 2 -14z"/>
<path d="M4545 4822 c-11 -7 -95 -137 -135 -207 -189 -332 -360 -662 -425
-820 -45 -109 -44 -146 8 -228 42 -65 57 -69 157 -42 122 34 253 59 360 70 78
8 83 11 74 38 -11 38 -54 75 -101 86 -39 10 -127 8 -173 -4 -8 -3 -31 -7 -50
-10 -19 -3 -64 -12 -98 -21 -35 -8 -66 -13 -68 -11 -6 6 179 368 276 542 220
394 245 452 233 538 -9 68 -28 91 -58 69z"/>
<path d="M4390 1561 c-117 -38 -236 -117 -355 -236 -96 -95 -141 -163 -176
-267 -24 -73 -23 -172 4 -224 34 -67 113 -138 256 -231 165 -108 183 -125 176
-168 -9 -61 -95 -92 -200 -70 -81 17 -139 47 -250 129 -49 37 -107 71 -128 77
-53 14 -109 14 -136 -1 -22 -11 -22 -12 -5 -38 49 -75 164 -172 265 -222 84
-43 160 -59 263 -57 78 2 100 6 157 33 131 62 208 212 150 293 -12 16 -76 63
-142 103 -198 120 -259 182 -259 264 1 135 218 370 435 470 183 84 204 26 65
-181 -84 -127 -108 -211 -77 -271 20 -38 50 -65 63 -56 6 4 33 45 61 92 28 47
72 115 96 152 25 36 50 83 57 103 27 80 -10 194 -86 270 -59 59 -129 70 -234
36z"/>
<path d="M735 190 c-11 -5 -17 -9 -12 -9 4 -1 1 -14 -8 -31 -8 -16 -15 -34
-15 -40 0 -18 30 -11 56 15 l24 24 -6 -23 c-5 -21 -2 -24 26 -22 17 1 35 7 39
14 4 7 14 12 21 10 8 -2 16 5 18 15 5 22 -26 20 -46 -3 -10 -13 -11 -12 -5 4
5 16 3 18 -19 13 -22 -6 -27 -3 -32 18 -7 27 -10 28 -41 15z m28 -16 c9 -10
-11 -42 -33 -54 -20 -10 -20 -10 -3 25 17 35 24 41 36 29z m33 -52 c-18 -16
-18 -16 -6 6 6 13 14 21 18 18 3 -4 -2 -14 -12 -24z"/>
<path d="M324 155 c-23 -57 -19 -64 29 -46 30 12 40 36 27 62 -16 29 -39 23
-56 -16z m44 1 c0 -22 -2 -23 -16 -10 -13 14 -13 17 -1 25 8 5 15 9 15 9 1 0
2 -11 2 -24z m-28 -36 c-8 -5 -17 -7 -19 -4 -3 3 1 9 9 14 8 5 17 7 19 4 3 -3
-1 -9 -9 -14z"/>
<path d="M507 154 c-10 -19 -15 -40 -12 -45 9 -14 62 -11 62 4 0 6 4 21 8 32
6 19 6 19 -9 1 -8 -10 -17 -24 -19 -30 -3 -8 -8 -7 -17 1 -9 8 -10 16 -3 25
15 19 24 48 15 48 -5 0 -16 -16 -25 -36z"/>
<path d="M983 166 c-14 -18 -23 -22 -26 -14 -4 9 -13 4 -29 -14 -30 -35 -44
-36 -22 -3 9 14 14 28 11 32 -4 3 -14 -8 -24 -26 -10 -17 -24 -29 -30 -26 -7
2 -13 0 -13 -5 0 -6 31 -9 72 -7 53 1 72 6 75 17 4 13 3 13 -6 0 -5 -8 -13
-11 -17 -7 -4 4 3 18 15 31 13 14 21 30 19 37 -2 7 -12 2 -25 -15z m-28 -46
c-3 -5 -12 -10 -18 -10 -7 0 -6 4 3 10 19 12 23 12 15 0z"/>
<path d="M1042 157 c-16 -46 -16 -63 1 -48 11 9 23 81 14 81 -2 0 -8 -15 -15
-33z"/>
<path d="M1077 170 c-17 -24 -11 -78 7 -60 10 10 20 80 11 80 -2 0 -10 -9 -18
-20z"/>
<path d="M1116 169 c-10 -15 -12 -25 -5 -29 5 -4 9 -13 7 -21 -5 -21 147 -22
165 -1 9 13 9 14 0 8 -9 -5 -13 1 -13 21 l0 27 -16 -22 c-14 -21 -35 -30 -33
-14 5 29 -4 32 -17 5 -9 -18 -21 -33 -26 -33 -5 0 -2 10 6 22 26 37 18 45 -10
11 -14 -18 -30 -33 -37 -33 -6 0 -3 6 8 13 10 8 15 19 11 25 -11 19 -29 14
-21 -5 5 -14 4 -15 -6 -6 -10 10 -9 16 1 28 7 8 10 18 7 21 -3 3 -12 -5 -21
-17z m135 -52 c-10 -9 -11 -8 -5 6 3 10 9 15 12 12 3 -3 0 -11 -7 -18z"/>
<path d="M615 151 c-3 -11 -13 -25 -22 -33 -15 -12 -15 -11 -5 9 17 30 14 42
-3 19 -22 -29 -18 -46 11 -46 17 0 23 4 18 13 -6 9 -4 9 7 -1 18 -17 46 -15
53 3 3 8 1 15 -4 15 -5 0 -7 9 -5 21 3 17 1 18 -9 10 -8 -7 -12 -21 -9 -31 3
-11 0 -20 -6 -20 -6 0 -8 7 -4 17 5 11 3 14 -6 8 -10 -5 -11 -2 -6 14 3 11 4
21 1 21 -2 0 -7 -9 -11 -19z"/>
<path d="M382 118 c-18 -26 -32 -51 -32 -57 0 -19 19 -12 31 12 7 12 19 28 28
35 12 11 13 12 1 6 -13 -7 -13 -5 -2 9 8 9 12 22 10 29 -2 6 -19 -9 -36 -34z"/>
</g>
</svg>
